<svg aria-hidden="true" style="position: absolute; width: 0; height: 0; overflow: hidden;" version="1.1" xmlns="http://www.w3.org/2000/svg" xmlns:xlink="http://www.w3.org/1999/xlink">
<defs>
<symbol id="icon-play" viewBox="0 0 32 32">
<path d="M23.13 21.579l-19.608 10.004c-0.874 0.445-1.675 0.52-2.292 0.288l16.681-14.977 5.219 4.685zM16.914 15.998l-16.665 14.962c-0.16-0.33-0.249-0.734-0.249-1.203v-27.516c0-0.469 0.088-0.874 0.249-1.204l16.665 14.961zM30.548 14.204c1.936 0.988 1.936 2.605 0 3.594l-6.145 3.133-5.495-4.932 5.491-4.931 6.148 3.137zM1.232 0.127c0.616-0.231 1.418-0.155 2.29 0.29l19.605 10.001-5.216 4.684-16.68-14.975z"></path>
</symbol>
<symbol id="icon-card-5" viewBox="0 0 32 32">
<path d="M20 12l-4-12-4 12-12 4 12 4 4 12 4-12 12-4-12-4zM5.333 16l8-2.667 1.333 2.667h-9.333zM16 26.667l-2.667-8 2.667-1.333v9.333zM16 5.333l2.667 8-2.667 1.333v-9.333zM18.667 18.667l-1.333-2.667h9.333l-8 2.667zM11.6 23.067l-4.933 2.267 2.267-4.933 2.133 0.667 0.533 2zM23.067 20.4l2.267 4.933-4.933-2.267 0.667-2.133 2-0.533zM8.933 11.6l-2.267-4.933 4.933 2.267-0.667 2-2 0.667zM20.4 8.933l4.933-2.267-2.267 4.933-2.133-0.667-0.533-2z"></path>
</symbol>
<symbol id="icon-card-4" viewBox="0 0 32 32">
<path d="M23.467 26.666l4.267 3.2v2.133h-4.267c-1.429-1.429-3.2-2.133-5.333-2.133s-3.904 0.704-5.333 2.133h-4.267v-2.133l4.267-3.2h10.667zM32 14.933v2.133c-4.565 0-8.299 3.584-8.533 8.107v0.427h-10.667c0-1.365-0.533-2.667-1.515-3.648l-0.619-0.619v-6.4h21.333zM9.6 15.999v5.333c-3.563 0-6.763-1.771-9.6-5.333h9.6zM24.533 2.133c0.533 0 0.96 0.384 1.045 0.875l0.021 0.192v8.533c0 0.533-0.384 0.96-0.875 1.045l-0.192 0.021h-4.267c-0.533 0-0.96-0.384-1.045-0.875l-0.021-0.192v-8.533c0-0.533 0.384-0.96 0.875-1.045l0.192-0.021h4.267zM18.133 6.399v2.133h-12.8c-0.597 0-1.067-0.469-1.067-1.067 0-0.533 0.384-0.96 0.875-1.045l0.192-0.021h12.8z"></path>
</symbol>
<symbol id="icon-card-3" viewBox="0 0 32 32">
<path d="M25.4 28.801l-3.9-3.867-2.933 2.933-0.933-0.933c-0.511-0.511-0.767-1.144-0.767-1.9s0.256-1.389 0.767-1.9l5.633-5.633c0.511-0.511 1.144-0.767 1.9-0.767s1.389 0.256 1.9 0.767l0.933 0.933-2.933 2.933 3.867 3.9c0.267 0.267 0.4 0.578 0.4 0.933s-0.133 0.667-0.4 0.933l-1.667 1.667c-0.267 0.267-0.578 0.4-0.933 0.4s-0.667-0.133-0.933-0.4zM29.333 7.867l-15.133 15.133 0.167 0.133c0.511 0.511 0.767 1.144 0.767 1.9s-0.256 1.389-0.767 1.9l-0.933 0.933-2.933-2.933-3.9 3.867c-0.267 0.267-0.578 0.4-0.933 0.4s-0.667-0.133-0.933-0.4l-1.667-1.667c-0.267-0.267-0.4-0.578-0.4-0.933s0.133-0.667 0.4-0.933l3.867-3.9-2.933-2.933 0.933-0.933c0.511-0.511 1.144-0.767 1.9-0.767s1.389 0.256 1.9 0.767l0.133 0.167 15.133-15.133h5.333v5.333zM9.267 14.467l-6.6-6.6v-5.333h5.333l6.6 6.6-5.333 5.333z"></path>
</symbol>
<symbol id="icon-card-2" viewBox="0 0 32 32">
<path d="M28.627 5.8l-1.787-0.747v12.040l3.24-7.813c0.547-1.36-0.080-2.92-1.453-3.48zM2.627 10.733l6.613 15.933c0.195 0.485 0.527 0.902 0.956 1.201s0.935 0.465 1.458 0.479c0.347 0 0.707-0.067 1.053-0.213l9.827-4.067c1-0.413 1.613-1.4 1.64-2.387 0.013-0.347-0.053-0.733-0.173-1.080l-6.667-15.933c-0.188-0.488-0.519-0.909-0.949-1.206s-0.941-0.458-1.464-0.461c-0.347 0-0.693 0.080-1.027 0.2l-9.813 4.067c-0.652 0.267-1.172 0.782-1.444 1.432s-0.276 1.382-0.009 2.034zM24.16 5.667c0-0.707-0.281-1.386-0.781-1.886s-1.178-0.781-1.886-0.781h-1.933l4.6 11.12z"></path>
</symbol>
<symbol id="icon-card-1" viewBox="0 0 32 32">
<path d="M6.706 1.625c-0.259 0-0.537 1.436-0.826 2.683l2.012 6.311-2.441-4.358c-0.183 0.896-0.338 1.789-0.438 2.673l2.699 3.64-2.802-2.301c-0.027 0.693-0.009 1.379 0.067 2.056l2.845 2.287-2.556-0.83c0.16 0.564 0.371 1.13 0.613 1.691l2.551 1.684-1.879-0.27c0.864 1.685 1.864 3.264 2.419 4.532 0.16 0.321 0.501 1.047 0.683 1.76 0.243 0.981-0.283 2.246-1.329 2.395 0.768-0.893 0.828-1.469 0.689-2.033-0.828-0.012-1.194 0.995-1.194 0.995s-0.783 1.467 0.982 3.711c1.765 2.243 4.199 2.123 4.199 2.123s-0.14-3.44-0.065-4.997c0.076-1.573 0.522-4.36 0.522-4.36s-1.25 0.006-2.653-0.987c-1.76-1.246-1.094-2.039-1.541-3.192-0.901-2.325-0.293-5.946-0.293-5.946s-0.679-2.662-1.116-4.551c-0.362-1.566-0.954-4.714-1.148-4.714zM25.294 1.625c-0.194 0-0.785 3.148-1.148 4.714-0.437 1.889-1.116 4.551-1.116 4.551s0.609 3.621-0.292 5.946c-0.447 1.153 0.219 1.946-1.541 3.192-1.403 0.993-2.653 0.987-2.653 0.987s0.446 2.787 0.522 4.36c0.075 1.557-0.065 4.998-0.065 4.998s2.433 0.12 4.199-2.123c1.765-2.243 0.982-3.711 0.982-3.711s-0.367-1.007-1.194-0.995c-0.139 0.564-0.079 1.14 0.689 2.034-1.046-0.149-1.573-1.414-1.329-2.395 0.181-0.713 0.523-1.44 0.683-1.76 0.555-1.268 1.554-2.847 2.419-4.532l-1.879 0.27 2.551-1.684c0.242-0.561 0.453-1.127 0.613-1.691l-2.556 0.83 2.845-2.287c0.077-0.678 0.095-1.364 0.067-2.056l-2.802 2.302 2.699-3.64c-0.099-0.884-0.254-1.777-0.438-2.673l-2.441 4.358 2.012-6.311c-0.288-1.247-0.567-2.683-0.826-2.683zM16 1.654c-1.212 0-4.006 2.838-5.522 4.733-0.439 0.549-0.987 1.864-0.987 1.864l0.575 2.331c0 0-0.072 0.528-0.163 1.906-0.068 1.037-0.066 2.050-0.066 2.050l3.292-1.056c0.25-1.409 0.719-3.255 1.265-4.826 0.438-1.259 1.605-3.661 1.605-3.661s1.2 2.291 1.629 3.507c0.57 1.613 0.988 3.593 1.241 4.98l3.292 1.056c0 0 0.002-1.013-0.066-2.050-0.091-1.377-0.163-1.906-0.163-1.906l0.575-2.331c0 0-0.381-1.211-0.752-1.709-1.506-2.021-4.545-4.888-5.757-4.888zM16 6.472c0 0-0.67 1.761-0.961 3.169-0.269 1.301-0.744 4.165-0.744 4.165s0.749 0.745 0.355 1.141c-0.394 0.396-1.065-0.357-1.065-0.357l-3.527 1.071 0.209 0.826 3.319 1.241c0 0 0.666-0.757 1.065-0.356s-0.355 1.497-0.355 1.497 0.242 1.004 0.375 1.503c0.216 0.814 0.683 2.432 0.683 2.432l0.647 0.179 0.647-0.179c0 0 0.425-1.513 0.628-2.272 0.148-0.553 0.43-1.663 0.43-1.663s-0.754-1.097-0.355-1.497c0.399-0.401 1.065 0.357 1.065 0.357l3.319-1.241 0.209-0.826-3.527-1.071c0 0-0.671 0.752-1.065 0.357s0.355-1.141 0.355-1.141-0.472-2.645-0.743-4.113c-0.266-1.435-0.961-3.22-0.961-3.22zM16 14.995c0.314 0 0.568 0.511 0.568 1.141s-0.254 1.141-0.568 1.141c-0.314 0-0.568-0.511-0.568-1.141s0.254-1.141 0.568-1.141z"></path>
</symbol>
<symbol id="icon-burger" viewBox="0 0 32 32">
<path d="M5.333 24c-0.378 0-0.694-0.128-0.949-0.384s-0.383-0.572-0.384-0.949c-0.001-0.377 0.127-0.693 0.384-0.949s0.573-0.384 0.949-0.384h21.333c0.378 0 0.695 0.128 0.951 0.384s0.384 0.572 0.383 0.949c-0.001 0.377-0.129 0.694-0.384 0.951s-0.572 0.384-0.949 0.383h-21.333zM5.333 17.333c-0.378 0-0.694-0.128-0.949-0.384s-0.383-0.572-0.384-0.949c-0.001-0.377 0.127-0.693 0.384-0.949s0.573-0.384 0.949-0.384h21.333c0.378 0 0.695 0.128 0.951 0.384s0.384 0.572 0.383 0.949c-0.001 0.377-0.129 0.694-0.384 0.951s-0.572 0.384-0.949 0.383h-21.333zM5.333 10.667c-0.378 0-0.694-0.128-0.949-0.384s-0.383-0.572-0.384-0.949c-0.001-0.377 0.127-0.693 0.384-0.949s0.573-0.384 0.949-0.384h21.333c0.378 0 0.695 0.128 0.951 0.384s0.384 0.572 0.383 0.949c-0.001 0.377-0.129 0.694-0.384 0.951s-0.572 0.384-0.949 0.383h-21.333z"></path>
</symbol>
<symbol id="icon-mail" viewBox="0 0 32 32">
<path d="M5.333 26.667c-0.733 0-1.361-0.261-1.883-0.783s-0.783-1.15-0.784-1.884v-16c0-0.733 0.261-1.361 0.784-1.883s1.15-0.783 1.883-0.784h21.333c0.733 0 1.361 0.261 1.884 0.784s0.784 1.15 0.783 1.883v16c0 0.733-0.261 1.361-0.783 1.884s-1.15 0.784-1.884 0.783h-21.333zM16.351 17.051c0.122-0.034 0.238-0.084 0.349-0.151l9.433-5.9c0.178-0.111 0.311-0.25 0.4-0.416s0.133-0.35 0.133-0.551c0-0.444-0.189-0.778-0.567-1s-0.767-0.211-1.167 0.033l-8.933 5.6-8.933-5.6c-0.4-0.244-0.789-0.25-1.167-0.016s-0.567 0.561-0.567 0.983c0 0.222 0.044 0.417 0.133 0.584s0.222 0.295 0.4 0.383l9.433 5.9c0.111 0.067 0.228 0.117 0.351 0.151s0.239 0.050 0.349 0.049c0.11-0.001 0.227-0.017 0.351-0.049z"></path>
</symbol>
<symbol id="icon-back" viewBox="0 0 32 32">
<path d="M15.56 25.060c-0.281 0.281-0.663 0.439-1.060 0.439s-0.779-0.158-1.060-0.439l-8.5-8.5c-0.281-0.281-0.439-0.663-0.439-1.060s0.158-0.779 0.439-1.060l8.5-8.5c0.284-0.265 0.661-0.41 1.049-0.403s0.76 0.164 1.035 0.439 0.432 0.646 0.439 1.035c0.007 0.389-0.138 0.765-0.403 1.049l-5.94 5.94h14.88c0.398 0 0.779 0.158 1.061 0.439s0.439 0.663 0.439 1.061c0 0.398-0.158 0.779-0.439 1.061s-0.663 0.439-1.061 0.439h-14.88l5.94 5.94c0.281 0.281 0.439 0.662 0.439 1.060s-0.158 0.779-0.439 1.060z"></path>
</symbol>
</defs>
</svg>